<?xml version="1.0" standalone="no"?>
<!DOCTYPE svg PUBLIC "-//W3C//DTD SVG 20010904//EN"
 "http://www.w3.org/TR/2001/REC-SVG-20010904/DTD/svg10.dtd">
<svg version="1.0" xmlns="http://www.w3.org/2000/svg"
 width="16.000000pt" height="16.000000pt" viewBox="0 0 16.000000 16.000000"
 preserveAspectRatio="xMidYMid meet">
<metadata>
Created by potrace 1.11, written by Peter Selinger 2001-2013
</metadata>
<g transform="translate(0.000000,16.000000) scale(0.005333,-0.005333)"
fill="#000000" stroke="none">
<path d="M1338 2994 c-2 -1 -28 -5 -58 -9 -165 -21 -373 -94 -535 -187 -318
-184 -568 -498 -674 -844 -57 -189 -66 -245 -66 -439 0 -99 3 -200 7 -225 65
-408 259 -735 593 -998 85 -67 293 -175 415 -216 154 -51 271 -69 460 -70 155
-1 291 7 310 19 3 2 18 6 32 9 109 19 298 91 411 156 275 158 488 386 620 663
39 82 91 221 101 273 3 10 10 42 16 69 19 85 25 154 25 310 0 162 -5 215 -30
321 -45 196 -131 389 -247 549 -191 265 -454 457 -760 554 -103 32 -118 36
-243 56 -66 10 -368 18 -377 9z"/>
</g>
</svg>
